<?xml version="1.0" encoding="UTF-8" standalone="no"?>
<!DOCTYPE svg PUBLIC "-//W3C//DTD SVG 1.1//EN" "http://www.w3.org/Graphics/SVG/1.1/DTD/svg11.dtd">
<svg width="100%" height="100%" viewBox="0 0 500 500" version="1.1" xmlns="http://www.w3.org/2000/svg" xmlns:xlink="http://www.w3.org/1999/xlink" xml:space="preserve" xmlns:serif="http://www.serif.com/" style="fill-rule:evenodd;clip-rule:evenodd;">
    <g transform="matrix(1.33333,0,0,1.33333,0,6e-06)">
        <clipPath id="_clip1">
            <rect x="29.895" y="29.918" width="315" height="315"/>
        </clipPath>
        <g clip-path="url(#_clip1)">
            <g>
                <clipPath id="_clip2">
                    <path d="M187.473,29.918C100.445,29.918 29.895,100.469 29.895,187.496C29.895,274.523 100.445,345.07 187.473,345.07C274.496,345.07 345.047,274.523 345.047,187.496C345.047,100.469 274.496,29.918 187.473,29.918Z"/>
                </clipPath>
                <g clip-path="url(#_clip2)">
                    <g transform="matrix(0.75,0,0,0.75,29.8948,29.9188)">
                        <path d="M210.104,-0.001C94.067,-0.001 -0,94.067 -0,210.103C-0,326.14 94.067,420.202 210.104,420.202C326.135,420.202 420.203,326.14 420.203,210.103C420.203,94.067 326.135,-0.001 210.104,-0.001Z" style="fill:none;fill-rule:nonzero;stroke:black;stroke-width:2px;"/>
                    </g>
                </g>
            </g>
        </g>
    </g>
    <g transform="matrix(1.33333,0,0,1.33333,0,6e-06)">
        <g>
            <clipPath id="_clip3">
                <path d="M187.473,62.422C118.395,62.422 62.398,118.418 62.398,187.496C62.398,256.574 118.395,312.57 187.473,312.57C256.551,312.57 312.547,256.574 312.547,187.496C312.547,118.418 256.551,62.422 187.473,62.422Z"/>
            </clipPath>
            <g clip-path="url(#_clip3)">
                <g transform="matrix(0.75,0,0,0.75,62.3983,62.4222)">
                    <path d="M5.681,210.083C24.753,281.184 89.645,333.531 166.766,333.531C243.977,333.531 308.931,281.062 327.917,209.833" style="fill:none;fill-rule:nonzero;stroke:black;stroke-width:2px;"/>
                </g>
                <g transform="matrix(0.75,0,0,0.75,0,-4.5e-06)">
                    <path d="M403.565,184.941C378.215,125.16 318.988,83.229 249.964,83.229C181.128,83.229 122.036,124.931 96.571,184.45" style="fill:none;stroke:black;stroke-width:2px;"/>
                </g>
                <g transform="matrix(0.75,0,0,0.75,0,-4.5e-06)">
                    <path d="M403.595,185.011C403.585,184.988 403.575,184.964 403.565,184.941" style="fill:none;stroke:black;stroke-width:2px;"/>
                </g>
            </g>
        </g>
    </g>
    <g transform="matrix(1.33333,0,0,1.33333,75.4991,270.679)">
        <g>
            <g>
                <path d="M42.266,-7.484C42.984,-5.66 43.617,-4.242 44.172,-3.234C44.723,-2.223 45.305,-1.5 45.922,-1.063C46.535,-0.633 47.281,-0.359 48.156,-0.234L48.156,0L29.375,0L29.375,-0.234C30.758,-0.359 31.906,-0.629 32.813,-1.047C33.727,-1.461 34.305,-2.145 34.547,-3.094C34.785,-4.039 34.547,-5.391 33.828,-7.141L32.641,-10.109L9.922,-10.109L8.625,-7.141C7.863,-5.43 7.582,-4.117 7.781,-3.203C7.977,-2.297 8.473,-1.633 9.266,-1.219C10.066,-0.801 11.02,-0.473 12.125,-0.234L12.125,0L1.188,0L1.188,-0.234C2.02,-0.473 2.766,-0.813 3.422,-1.25C4.078,-1.688 4.711,-2.359 5.328,-3.266C5.941,-4.18 6.602,-5.488 7.313,-7.188L20.328,-37.219L20.219,-38.938L21.344,-39.594L28.359,-43.344C28.359,-43.188 28.426,-42.836 28.563,-42.297C28.707,-41.766 29.094,-40.723 29.719,-39.172L42.266,-7.484ZM10.344,-11.172L32.219,-11.172L21.703,-37.391L10.344,-11.172Z" style="fill:rgb(25,25,25);fill-rule:nonzero;"/>
            </g>
        </g>
    </g>
    <g transform="matrix(1.33333,0,0,1.33333,145.252,270.679)">
        <g>
            <g>
                <path d="M43.453,0L43.813,-4.109L43.813,-18.25C43.813,-20.469 43.613,-22.16 43.219,-23.328C42.82,-24.504 42.285,-25.316 41.609,-25.766C40.941,-26.223 40.148,-26.453 39.234,-26.453C38.203,-26.453 37.211,-26.223 36.266,-25.766C35.316,-25.316 34.414,-24.766 33.563,-24.109C32.707,-23.453 31.926,-22.828 31.219,-22.234C31.445,-21.16 31.563,-19.875 31.563,-18.375L31.563,-5.531C31.563,-3.945 31.727,-2.773 32.063,-2.016C32.406,-1.266 33.016,-0.594 33.891,0L23.656,0L24.016,-4.109L24.016,-18.25C24.016,-20.469 23.816,-22.16 23.422,-23.328C23.023,-24.504 22.488,-25.316 21.813,-25.766C21.145,-26.223 20.352,-26.453 19.438,-26.453C17.969,-26.453 16.598,-26.016 15.328,-25.141C14.066,-24.273 12.879,-23.426 11.766,-22.594L11.766,-5.531C11.766,-3.945 11.93,-2.773 12.266,-2.016C12.609,-1.266 13.219,-0.594 14.094,0L3.859,0L4.219,-4.109L4.219,-26.938C3.82,-27.207 3.273,-27.441 2.578,-27.641C1.891,-27.836 1.227,-27.957 0.594,-28L0.594,-28.234L12.063,-29.125L11.766,-24.734L11.766,-23.953C12.641,-24.629 13.648,-25.375 14.797,-26.188C15.953,-27 17.234,-27.703 18.641,-28.297C20.047,-28.891 21.539,-29.188 23.125,-29.188C24.039,-29.188 25.004,-29.023 26.016,-28.703C27.023,-28.391 27.973,-27.816 28.859,-26.984C29.754,-26.16 30.441,-24.973 30.922,-23.422C31.711,-24.016 32.711,-24.766 33.922,-25.672C35.129,-26.586 36.492,-27.398 38.016,-28.109C39.547,-28.828 41.18,-29.188 42.922,-29.188C43.836,-29.188 44.781,-29.035 45.75,-28.734C46.719,-28.441 47.629,-27.91 48.484,-27.141C49.336,-26.367 50.031,-25.281 50.563,-23.875C51.102,-22.469 51.375,-20.633 51.375,-18.375L51.375,-5.531C51.375,-3.945 51.539,-2.773 51.875,-2.016C52.207,-1.266 52.813,-0.594 53.688,0L43.453,0Z" style="fill:rgb(25,25,25);fill-rule:nonzero;"/>
            </g>
        </g>
    </g>
    <g transform="matrix(1.33333,0,0,1.33333,223.168,270.679)">
        <g>
            <g>
                <path d="M7.734,-33.531C6.504,-33.531 5.473,-33.957 4.641,-34.813C3.805,-35.664 3.391,-36.707 3.391,-37.938C3.391,-39.164 3.805,-40.191 4.641,-41.016C5.473,-41.848 6.504,-42.266 7.734,-42.266C8.961,-42.266 9.988,-41.848 10.813,-41.016C11.645,-40.191 12.063,-39.164 12.063,-37.938C12.063,-36.707 11.645,-35.664 10.813,-34.813C9.988,-33.957 8.961,-33.531 7.734,-33.531ZM3.859,0L4.219,-4.109L4.219,-26.938C3.82,-27.207 3.273,-27.441 2.578,-27.641C1.891,-27.836 1.227,-27.957 0.594,-28L0.594,-28.234L12.063,-29.125L11.766,-24.734L11.766,-5.531C11.766,-3.945 11.93,-2.773 12.266,-2.016C12.609,-1.266 13.219,-0.594 14.094,0L3.859,0Z" style="fill:rgb(25,25,25);fill-rule:nonzero;"/>
            </g>
        </g>
    </g>
    <g transform="matrix(1.33333,0,0,1.33333,248.295,270.679)">
        <g>
            <g>
                <path d="M21.047,-29.188C22.953,-29.188 24.906,-29.008 26.906,-28.656C28.906,-28.301 30.859,-27.742 32.766,-26.984L32.766,2.5C32.766,3.164 32.348,3.938 31.516,4.813C30.68,5.688 29.578,6.566 28.203,7.453C26.836,8.348 25.344,9.172 23.719,9.922C22.094,10.68 20.457,11.285 18.813,11.734C17.164,12.191 15.672,12.422 14.328,12.422C13.297,12.422 12.176,12.254 10.969,11.922C9.758,11.586 8.609,11.02 7.516,10.219C6.43,9.426 5.492,8.336 4.703,6.953L11.719,4.875C12.539,6.582 13.41,7.832 14.328,8.625C15.242,9.414 16.145,9.91 17.031,10.109C17.926,10.305 18.707,10.406 19.375,10.406C20.969,10.406 22.336,9.75 23.484,8.438C24.629,7.133 25.203,5.332 25.203,3.031L25.203,-2.078C24.211,-1.328 22.992,-0.723 21.547,-0.266C20.098,0.191 18.484,0.422 16.703,0.422C13.805,0.422 11.285,-0.129 9.141,-1.234C7.004,-2.348 5.344,-3.926 4.156,-5.969C2.969,-8.008 2.375,-10.398 2.375,-13.141C2.375,-16.035 3.055,-18.703 4.422,-21.141C5.797,-23.578 7.859,-25.523 10.609,-26.984C13.367,-28.453 16.848,-29.188 21.047,-29.188ZM20.453,-1.422C22.43,-1.422 24.016,-2.113 25.203,-3.5L25.203,-24.844C24.297,-25.875 23.285,-26.664 22.172,-27.219C21.066,-27.781 19.801,-28.063 18.375,-28.063C15.594,-28.063 13.488,-27.008 12.063,-24.906C10.633,-22.813 9.922,-20.039 9.922,-16.594C9.922,-13.738 10.375,-11.16 11.281,-8.859C12.195,-6.555 13.457,-4.738 15.063,-3.406C16.676,-2.082 18.473,-1.422 20.453,-1.422Z" style="fill:rgb(25,25,25);fill-rule:nonzero;"/>
            </g>
        </g>
    </g>
    <g transform="matrix(1.33333,0,0,1.33333,300.293,270.679)">
        <g>
            <g>
                <path d="M18.188,-29.188C21.406,-29.188 24.191,-28.57 26.547,-27.344C28.898,-26.113 30.727,-24.391 32.031,-22.172C33.344,-19.953 34,-17.359 34,-14.391C34,-11.492 33.344,-8.926 32.031,-6.688C30.727,-4.445 28.898,-2.703 26.547,-1.453C24.191,-0.203 21.406,0.422 18.188,0.422C15.02,0.422 12.242,-0.191 9.859,-1.422C7.484,-2.648 5.641,-4.375 4.328,-6.594C3.023,-8.813 2.375,-11.41 2.375,-14.391C2.375,-17.316 3.023,-19.891 4.328,-22.109C5.641,-24.336 7.484,-26.07 9.859,-27.313C12.242,-28.563 15.02,-29.188 18.188,-29.188ZM20.516,-0.594C22.648,-0.594 24.223,-1.426 25.234,-3.094C26.242,-4.758 26.75,-7 26.75,-9.813C26.75,-11.789 26.52,-13.848 26.063,-15.984C25.613,-18.129 24.93,-20.125 24.016,-21.969C23.109,-23.813 21.969,-25.305 20.594,-26.453C19.227,-27.609 17.656,-28.188 15.875,-28.188C13.727,-28.188 12.148,-27.363 11.141,-25.719C10.129,-24.07 9.625,-21.801 9.625,-18.906C9.625,-16.926 9.852,-14.875 10.313,-12.75C10.77,-10.633 11.461,-8.656 12.391,-6.813C13.328,-4.969 14.469,-3.469 15.813,-2.313C17.156,-1.164 18.723,-0.594 20.516,-0.594Z" style="fill:rgb(25,25,25);fill-rule:nonzero;"/>
            </g>
        </g>
    </g>
    <g transform="matrix(1.33333,0,0,1.33333,352.766,270.679)">
        <g>
            <g>
                <path d="M19.141,-45.547L19.141,-44.953C18.586,-44.391 17.852,-43.711 16.938,-42.922C16.031,-42.129 15.051,-41.297 14,-40.422C12.945,-39.555 11.914,-38.734 10.906,-37.953C9.895,-37.18 9.016,-36.539 8.266,-36.031L2.375,-36.031L2.375,-36.797C3.008,-37.555 3.754,-38.441 4.609,-39.453C5.461,-40.461 6.297,-41.508 7.109,-42.594C7.922,-43.688 8.625,-44.672 9.219,-45.547L19.141,-45.547Z" style="fill:rgb(25,25,25);fill-rule:nonzero;"/>
            </g>
        </g>
    </g>
    <g transform="matrix(1.33333,0,0,1.33333,385.423,270.679)">
        <g>
            <g>
                <path d="M13.906,0.422C11.613,0.422 9.363,0.082 7.156,-0.594C4.957,-1.27 3.266,-2.102 2.078,-3.094L5.828,-9.156L5.938,-9.156C5.906,-7.445 6.395,-5.945 7.406,-4.656C8.414,-3.375 9.723,-2.375 11.328,-1.656C12.93,-0.945 14.547,-0.594 16.172,-0.594C17.953,-0.594 19.258,-0.988 20.094,-1.781C20.926,-2.57 21.344,-3.66 21.344,-5.047C21.344,-6.867 20.688,-8.234 19.375,-9.141C18.07,-10.055 16.148,-10.695 13.609,-11.063C11.348,-11.375 9.492,-11.875 8.047,-12.563C6.609,-13.258 5.5,-14.082 4.719,-15.031C3.945,-15.988 3.41,-16.953 3.109,-17.922C2.816,-18.891 2.672,-19.789 2.672,-20.625C2.672,-22.414 3.188,-23.941 4.219,-25.203C5.25,-26.473 6.664,-27.453 8.469,-28.141C10.27,-28.836 12.32,-29.188 14.625,-29.188C16.969,-29.188 19.039,-28.859 20.844,-28.203C22.645,-27.555 24.098,-26.719 25.203,-25.688L21.172,-20.094L21.047,-20.094C21.16,-21.676 20.801,-23.082 19.969,-24.313C19.145,-25.539 18.055,-26.508 16.703,-27.219C15.359,-27.938 13.953,-28.297 12.484,-28.297C11.172,-28.297 10.188,-28.047 9.531,-27.547C8.883,-27.055 8.453,-26.484 8.234,-25.828C8.016,-25.172 7.906,-24.566 7.906,-24.016C7.906,-22.148 8.617,-20.801 10.047,-19.969C11.473,-19.145 13.195,-18.551 15.219,-18.188C18.625,-17.594 21.281,-16.531 23.188,-15C25.094,-13.477 26.047,-11.473 26.047,-8.984C26.047,-7.191 25.547,-5.582 24.547,-4.156C23.555,-2.727 22.148,-1.609 20.328,-0.797C18.504,0.016 16.363,0.422 13.906,0.422Z" style="fill:rgb(25,25,25);fill-rule:nonzero;"/>
            </g>
        </g>
    </g>
    <g transform="matrix(1.33333,0,0,1.33333,191.514,326.184)">
        <g>
            <g>
                <path d="M1,-11.125L8.203,-11.125L8.203,-9.094L3.219,-9.094L3.219,-6.594L7.516,-6.594L7.516,-4.609L3.219,-4.609L3.219,-1.641L8.203,-1.641L8.203,0.391L1,0.391L1,-11.125Z" style="fill-rule:nonzero;"/>
            </g>
        </g>
    </g>
    <g transform="matrix(1.33333,0,0,1.33333,205.729,326.184)">
        <g>
            <g>
                <path d="M1.453,-2.422C1.629,-2.273 1.813,-2.145 2,-2.031C2.188,-1.926 2.391,-1.828 2.609,-1.734C3.016,-1.555 3.5,-1.469 4.063,-1.469C4.406,-1.469 4.703,-1.5 4.953,-1.563C5.203,-1.633 5.41,-1.734 5.578,-1.859C5.91,-2.086 6.078,-2.398 6.078,-2.797L6.078,-2.891C6.078,-2.93 6.07,-2.961 6.063,-2.984C6.063,-3.016 6.055,-3.047 6.047,-3.078C6.047,-3.117 6.039,-3.148 6.031,-3.172C6.02,-3.203 6.008,-3.234 6,-3.266C5.957,-3.391 5.867,-3.516 5.734,-3.641C5.586,-3.773 5.367,-3.922 5.078,-4.078C4.766,-4.242 4.359,-4.426 3.859,-4.625C3.285,-4.832 2.805,-5.051 2.422,-5.281C2.004,-5.5 1.66,-5.75 1.391,-6.031C1.305,-6.133 1.227,-6.234 1.156,-6.328C1.082,-6.43 1.016,-6.539 0.953,-6.656C0.891,-6.77 0.836,-6.883 0.797,-7C0.68,-7.344 0.625,-7.727 0.625,-8.156C0.625,-8.602 0.719,-9.02 0.906,-9.406C1.094,-9.789 1.363,-10.129 1.719,-10.422C2.063,-10.691 2.488,-10.91 3,-11.078C3.488,-11.234 4.047,-11.313 4.672,-11.313C5.328,-11.313 5.922,-11.242 6.453,-11.109C6.992,-10.973 7.52,-10.785 8.031,-10.547L8.344,-10.375L8.203,-10.031L7.672,-8.797L7.5,-8.391L7.125,-8.609C7.02,-8.68 6.906,-8.742 6.781,-8.797C6.664,-8.848 6.539,-8.895 6.406,-8.938C6.281,-8.988 6.141,-9.039 5.984,-9.094C5.555,-9.219 5.109,-9.281 4.641,-9.281C4.328,-9.281 4.055,-9.25 3.828,-9.188C3.598,-9.133 3.406,-9.055 3.25,-8.953C3.145,-8.891 3.063,-8.82 3,-8.75C2.945,-8.676 2.906,-8.598 2.875,-8.516C2.852,-8.43 2.844,-8.336 2.844,-8.234C2.844,-8.078 2.863,-7.941 2.906,-7.828C2.938,-7.723 3.008,-7.617 3.125,-7.516C3.195,-7.453 3.285,-7.391 3.391,-7.328C3.492,-7.266 3.617,-7.195 3.766,-7.125C3.828,-7.094 3.898,-7.055 3.984,-7.016C4.066,-6.973 4.156,-6.93 4.25,-6.891C4.352,-6.848 4.457,-6.805 4.563,-6.766C4.676,-6.723 4.797,-6.676 4.922,-6.625C5.535,-6.406 6.051,-6.172 6.469,-5.922C6.563,-5.867 6.648,-5.816 6.734,-5.766C6.816,-5.711 6.895,-5.66 6.969,-5.609C7.039,-5.555 7.109,-5.5 7.172,-5.438C7.242,-5.383 7.313,-5.328 7.375,-5.266C7.438,-5.211 7.492,-5.156 7.547,-5.094C7.836,-4.789 8.039,-4.457 8.156,-4.094C8.281,-3.75 8.344,-3.375 8.344,-2.969C8.344,-2.406 8.234,-1.898 8.016,-1.453C7.797,-1.016 7.492,-0.645 7.109,-0.344C6.723,-0.031 6.266,0.203 5.734,0.359C5.223,0.492 4.664,0.563 4.063,0.563C3.281,0.563 2.563,0.457 1.906,0.25C1.25,0.031 0.695,-0.25 0.25,-0.594L-0.031,-0.813L0.156,-1.109L0.891,-2.328L1.125,-2.719L1.453,-2.422Z" style="fill-rule:nonzero;"/>
            </g>
        </g>
    </g>
    <g transform="matrix(1.33333,0,0,1.33333,220.21,326.184)">
        <g>
            <g>
                <path d="M-0.234,-11.125L8.594,-11.125L8.594,-9.063L5.297,-9.063L5.297,0.391L3.063,0.391L3.063,-9.063L-0.234,-9.063L-0.234,-11.125Z" style="fill-rule:nonzero;"/>
            </g>
        </g>
    </g>
    <g transform="matrix(1.33333,0,0,1.33333,234.221,326.184)">
        <g>
            <g>
                <path d="M0.891,-0.844C0.891,-0.977 0.898,-1.102 0.922,-1.219C0.953,-1.332 0.992,-1.445 1.047,-1.563C1.109,-1.676 1.188,-1.773 1.281,-1.859C1.52,-2.117 1.859,-2.25 2.297,-2.25C2.672,-2.25 3,-2.113 3.281,-1.844C3.57,-1.563 3.719,-1.227 3.719,-0.844C3.719,-0.426 3.578,-0.086 3.297,0.172C3.035,0.43 2.703,0.563 2.297,0.563C1.922,0.563 1.594,0.422 1.313,0.141C1.031,-0.141 0.891,-0.469 0.891,-0.844Z" style="fill-rule:nonzero;"/>
            </g>
        </g>
    </g>
    <g transform="matrix(1.33333,0,0,1.33333,252.221,326.184)">
        <g>
            <g>
                <path d="M0.969,0.063C0.938,-0.145 0.922,-0.352 0.922,-0.563C0.922,-1.27 1.051,-1.914 1.313,-2.5C1.57,-3.063 1.891,-3.57 2.266,-4.031C2.641,-4.477 3.039,-4.898 3.469,-5.297C3.676,-5.473 3.875,-5.648 4.063,-5.828C4.25,-6.016 4.438,-6.195 4.625,-6.375C4.957,-6.688 5.238,-7.004 5.469,-7.328C5.656,-7.609 5.75,-7.898 5.75,-8.203C5.75,-8.523 5.633,-8.785 5.406,-8.984C5.164,-9.203 4.844,-9.313 4.438,-9.313C4.063,-9.313 3.723,-9.238 3.422,-9.094C3.109,-8.945 2.813,-8.742 2.531,-8.484L2.234,-8.203L1.984,-8.516L1.219,-9.453L0.984,-9.75L1.25,-9.984C1.688,-10.379 2.172,-10.695 2.703,-10.938C2.973,-11.063 3.266,-11.156 3.578,-11.219C3.898,-11.281 4.238,-11.313 4.594,-11.313C5.082,-11.313 5.535,-11.238 5.953,-11.094C6.16,-11.008 6.352,-10.914 6.531,-10.813C6.719,-10.707 6.883,-10.586 7.031,-10.453C7.332,-10.172 7.566,-9.848 7.734,-9.484C7.898,-9.117 7.984,-8.723 7.984,-8.297C7.984,-8.16 7.973,-8.023 7.953,-7.891C7.941,-7.766 7.922,-7.633 7.891,-7.5C7.859,-7.363 7.816,-7.234 7.766,-7.109C7.723,-6.992 7.672,-6.879 7.609,-6.766C7.367,-6.328 7.07,-5.91 6.719,-5.516C6.383,-5.117 6.008,-4.75 5.594,-4.406C5.406,-4.227 5.219,-4.055 5.031,-3.891C4.852,-3.723 4.68,-3.551 4.516,-3.375C4.348,-3.195 4.191,-3.02 4.047,-2.844C3.898,-2.664 3.766,-2.484 3.641,-2.297C3.598,-2.223 3.555,-2.148 3.516,-2.078C3.473,-2.016 3.438,-1.941 3.406,-1.859C3.375,-1.785 3.348,-1.711 3.328,-1.641L7.969,-1.641L7.969,0.391L1.031,0.391L0.969,0.063Z" style="fill-rule:nonzero;"/>
            </g>
        </g>
    </g>
    <g transform="matrix(1.33333,0,0,1.33333,267.357,326.184)">
        <g>
            <g>
                <path d="M4.625,-11.313C5.27,-11.313 5.859,-11.164 6.391,-10.875C6.641,-10.738 6.867,-10.566 7.078,-10.359C7.297,-10.16 7.492,-9.93 7.672,-9.672C7.992,-9.16 8.242,-8.535 8.422,-7.797C8.586,-7.078 8.672,-6.266 8.672,-5.359C8.672,-3.492 8.332,-2.055 7.656,-1.047C6.938,0.023 5.914,0.563 4.594,0.563C3.25,0.563 2.227,0.02 1.531,-1.063C1.195,-1.594 0.945,-2.211 0.781,-2.922C0.613,-3.641 0.531,-4.461 0.531,-5.391C0.531,-7.242 0.867,-8.68 1.547,-9.703C2.266,-10.773 3.289,-11.313 4.625,-11.313ZM4.609,-9.281L4.5,-9.281C4.469,-9.281 4.438,-9.273 4.406,-9.266C4.375,-9.266 4.336,-9.258 4.297,-9.25C4.266,-9.25 4.234,-9.242 4.203,-9.234C4.172,-9.223 4.141,-9.211 4.109,-9.203C4.086,-9.203 4.063,-9.191 4.031,-9.172C4,-9.16 3.969,-9.148 3.938,-9.141C3.914,-9.129 3.891,-9.113 3.859,-9.094C3.766,-9.039 3.672,-8.969 3.578,-8.875C3.484,-8.789 3.395,-8.676 3.313,-8.531C3.133,-8.238 3.004,-7.836 2.922,-7.328C2.816,-6.816 2.766,-6.176 2.766,-5.406C2.766,-4.039 2.941,-3.02 3.297,-2.344C3.617,-1.75 4.055,-1.453 4.609,-1.453C4.742,-1.453 4.867,-1.469 4.984,-1.5C5.109,-1.531 5.227,-1.578 5.344,-1.641C5.551,-1.754 5.734,-1.941 5.891,-2.203C5.984,-2.348 6.063,-2.52 6.125,-2.719C6.195,-2.914 6.254,-3.145 6.297,-3.406C6.391,-3.914 6.438,-4.563 6.438,-5.344C6.438,-6.695 6.258,-7.711 5.906,-8.391C5.594,-8.984 5.16,-9.281 4.609,-9.281Z" style="fill-rule:nonzero;"/>
            </g>
        </g>
    </g>
    <g transform="matrix(1.33333,0,0,1.33333,282.493,326.184)">
        <g>
            <g>
                <path d="M0.969,0.063C0.938,-0.145 0.922,-0.352 0.922,-0.563C0.922,-1.27 1.051,-1.914 1.313,-2.5C1.57,-3.063 1.891,-3.57 2.266,-4.031C2.641,-4.477 3.039,-4.898 3.469,-5.297C3.676,-5.473 3.875,-5.648 4.063,-5.828C4.25,-6.016 4.438,-6.195 4.625,-6.375C4.957,-6.688 5.238,-7.004 5.469,-7.328C5.656,-7.609 5.75,-7.898 5.75,-8.203C5.75,-8.523 5.633,-8.785 5.406,-8.984C5.164,-9.203 4.844,-9.313 4.438,-9.313C4.063,-9.313 3.723,-9.238 3.422,-9.094C3.109,-8.945 2.813,-8.742 2.531,-8.484L2.234,-8.203L1.984,-8.516L1.219,-9.453L0.984,-9.75L1.25,-9.984C1.688,-10.379 2.172,-10.695 2.703,-10.938C2.973,-11.063 3.266,-11.156 3.578,-11.219C3.898,-11.281 4.238,-11.313 4.594,-11.313C5.082,-11.313 5.535,-11.238 5.953,-11.094C6.16,-11.008 6.352,-10.914 6.531,-10.813C6.719,-10.707 6.883,-10.586 7.031,-10.453C7.332,-10.172 7.566,-9.848 7.734,-9.484C7.898,-9.117 7.984,-8.723 7.984,-8.297C7.984,-8.16 7.973,-8.023 7.953,-7.891C7.941,-7.766 7.922,-7.633 7.891,-7.5C7.859,-7.363 7.816,-7.234 7.766,-7.109C7.723,-6.992 7.672,-6.879 7.609,-6.766C7.367,-6.328 7.07,-5.91 6.719,-5.516C6.383,-5.117 6.008,-4.75 5.594,-4.406C5.406,-4.227 5.219,-4.055 5.031,-3.891C4.852,-3.723 4.68,-3.551 4.516,-3.375C4.348,-3.195 4.191,-3.02 4.047,-2.844C3.898,-2.664 3.766,-2.484 3.641,-2.297C3.598,-2.223 3.555,-2.148 3.516,-2.078C3.473,-2.016 3.438,-1.941 3.406,-1.859C3.375,-1.785 3.348,-1.711 3.328,-1.641L7.969,-1.641L7.969,0.391L1.031,0.391L0.969,0.063Z" style="fill-rule:nonzero;"/>
            </g>
        </g>
    </g>
    <g transform="matrix(1.33333,0,0,1.33333,297.628,326.184)">
        <g>
            <g>
                <path d="M7.328,-1.906L7.328,0.391L5.188,0.391L5.188,-1.906L0.594,-1.906L0.594,-3.469L0.625,-3.547L3.828,-11L3.984,-11.359L4.344,-11.203L5.547,-10.688L5.891,-10.547L5.734,-10.188L3.063,-3.922L5.188,-3.922L5.188,-6.984L7.328,-6.984L7.328,-3.922L8.609,-3.922L8.609,-1.906L7.328,-1.906Z" style="fill-rule:nonzero;"/>
            </g>
        </g>
    </g>
    <g transform="matrix(1.33333,0,0,1.33333,130.295,114.737)">
        <g>
            <g>
                <path d="M-1.219,-5.109C-1.102,-4.961 -0.988,-4.828 -0.875,-4.703C-0.758,-4.586 -0.641,-4.477 -0.516,-4.375C-0.398,-4.281 -0.281,-4.195 -0.156,-4.125C0.227,-3.883 0.602,-3.727 0.969,-3.656C1.094,-3.625 1.219,-3.602 1.344,-3.594C1.469,-3.582 1.586,-3.582 1.703,-3.594C1.816,-3.613 1.93,-3.633 2.047,-3.656C2.398,-3.738 2.723,-3.898 3.016,-4.141C3.328,-4.391 3.563,-4.645 3.719,-4.906C3.895,-5.188 4.039,-5.477 4.156,-5.781L4.281,-6.156L4.641,-5.953L5.609,-5.375L5.859,-5.234L5.75,-4.953C5.594,-4.586 5.391,-4.211 5.141,-3.828C4.859,-3.43 4.488,-3.047 4.031,-2.672C3.52,-2.254 2.973,-1.961 2.391,-1.797C1.805,-1.641 1.223,-1.609 0.641,-1.703C0.055,-1.797 -0.523,-2.02 -1.109,-2.375C-1.68,-2.719 -2.211,-3.191 -2.703,-3.797C-3.18,-4.379 -3.539,-4.988 -3.781,-5.625C-4.008,-6.258 -4.125,-6.879 -4.125,-7.484C-4.102,-8.117 -3.957,-8.719 -3.688,-9.281C-3.539,-9.563 -3.363,-9.828 -3.156,-10.078C-2.945,-10.336 -2.707,-10.582 -2.438,-10.813C-2.063,-11.113 -1.703,-11.352 -1.359,-11.531C-1.004,-11.695 -0.641,-11.828 -0.266,-11.922L0.031,-12.016L0.156,-11.719L0.531,-10.641L0.641,-10.281L0.281,-10.203C0,-10.141 -0.27,-10.047 -0.531,-9.922C-0.613,-9.898 -0.695,-9.859 -0.781,-9.797C-0.863,-9.742 -0.945,-9.688 -1.031,-9.625C-1.125,-9.57 -1.223,-9.504 -1.328,-9.422C-1.461,-9.305 -1.586,-9.172 -1.703,-9.016C-1.828,-8.867 -1.926,-8.719 -2,-8.563C-2.082,-8.406 -2.141,-8.242 -2.172,-8.078C-2.211,-7.91 -2.227,-7.734 -2.219,-7.547C-2.219,-7.359 -2.195,-7.172 -2.156,-6.984C-2.125,-6.797 -2.07,-6.594 -2,-6.375C-1.832,-5.957 -1.57,-5.535 -1.219,-5.109Z" style="fill-rule:nonzero;"/>
            </g>
        </g>
    </g>
    <g transform="matrix(1.33333,0,0,1.33333,143.788,104)">
        <g>
            <g>
                <path d="M-0.375,-0.281L-2.375,-9.859L-2.438,-10.078L-2.25,-10.203L-1.094,-10.984L-0.891,-11.109L-0.703,-10.984L7.359,-5.469L7.625,-5.281L7.438,-5.031L6.719,-3.984L6.547,-3.688L6.266,-3.906L4.094,-5.406L0.859,-3.25L1.406,-0.672L1.484,-0.344L1.156,-0.281L0.016,-0.047L-0.328,0.063L-0.375,-0.281ZM0.438,-5.063L2.547,-6.469L-0.313,-8.469L0.438,-5.063Z" style="fill-rule:nonzero;"/>
            </g>
        </g>
    </g>
    <g transform="matrix(1.33333,0,0,1.33333,159.424,93.9647)">
        <g>
            <g>
                <path d="M-3.563,-9.141L1.344,-11.781L1.625,-11.938L1.781,-11.641L2.313,-10.672L2.469,-10.375L2.188,-10.219L-1.313,-8.344L-0.266,-6.422L2.594,-7.953L2.906,-8.125L3.063,-7.813L3.563,-6.891L3.719,-6.609L3.406,-6.438L0.547,-4.906L2.469,-1.344L2.625,-1.063L2.344,-0.906L1.219,-0.297L0.922,-0.141L0.766,-0.422L-3.703,-8.688L-3.859,-8.984L-3.563,-9.141Z" style="fill-rule:nonzero;"/>
            </g>
        </g>
    </g>
    <g transform="matrix(1.33333,0,0,1.33333,173.843,86.5108)">
        <g>
            <g>
                <path d="M-2.719,-9.422L2.469,-11.656L2.781,-11.781L2.906,-11.453L3.344,-10.453L3.469,-10.141L3.156,-10.016L-0.563,-8.422L0.313,-6.406L3.469,-7.75L3.781,-7.891L3.906,-7.594L4.328,-6.594L4.453,-6.297L4.141,-6.156L0.984,-4.813L2.016,-2.438L5.734,-4.031L6.047,-4.156L6.172,-3.828L6.609,-2.828L6.734,-2.531L6.422,-2.406L1.234,-0.172L0.922,-0.047L0.797,-0.344L-2.906,-8.969L-3.031,-9.297L-2.719,-9.422ZM-2.156,-10.984L-0.484,-13.547L-0.281,-13.844L0.016,-13.609L0.969,-12.797L1.234,-12.578L1,-12.328L-0.922,-10L-1.125,-9.75L-1.391,-9.969L-2.109,-10.547L-2.313,-10.75L-2.156,-10.984Z" style="fill-rule:nonzero;"/>
            </g>
        </g>
    </g>
    <g transform="matrix(1.33333,0,0,1.33333,200.784,76.5702)">
        <g>
            <g>
                <path d="M0.734,-2.375C0.898,-2.281 1.07,-2.207 1.25,-2.156C1.438,-2.102 1.633,-2.063 1.844,-2.031C2.238,-1.969 2.672,-2 3.141,-2.125C3.422,-2.188 3.66,-2.273 3.859,-2.391C4.055,-2.504 4.223,-2.629 4.359,-2.766C4.578,-3.035 4.645,-3.332 4.563,-3.656C4.551,-3.688 4.539,-3.719 4.531,-3.75C4.531,-3.781 4.523,-3.805 4.516,-3.828C4.504,-3.859 4.492,-3.891 4.484,-3.922C4.473,-3.953 4.457,-3.973 4.438,-3.984C4.426,-4.004 4.41,-4.023 4.391,-4.047C4.336,-4.141 4.234,-4.227 4.078,-4.313C3.93,-4.395 3.711,-4.469 3.422,-4.531C3.129,-4.613 2.754,-4.688 2.297,-4.75C1.766,-4.813 1.313,-4.891 0.938,-4.984C0.531,-5.086 0.188,-5.234 -0.094,-5.422C-0.188,-5.484 -0.273,-5.547 -0.359,-5.609C-0.453,-5.68 -0.535,-5.758 -0.609,-5.844C-0.68,-5.926 -0.75,-6.016 -0.813,-6.109C-0.988,-6.379 -1.125,-6.695 -1.219,-7.063C-1.313,-7.438 -1.316,-7.805 -1.234,-8.172C-1.16,-8.535 -1.004,-8.875 -0.766,-9.188C-0.523,-9.508 -0.207,-9.789 0.188,-10.031C0.57,-10.27 1.023,-10.457 1.547,-10.594C2.109,-10.727 2.629,-10.797 3.109,-10.797C3.586,-10.805 4.066,-10.758 4.547,-10.656L4.859,-10.578L4.828,-10.266L4.641,-9.094L4.563,-8.734L4.203,-8.813C4.098,-8.852 3.988,-8.879 3.875,-8.891C3.77,-8.91 3.656,-8.93 3.531,-8.953C3.406,-8.973 3.273,-8.988 3.141,-9C2.742,-9.008 2.348,-8.961 1.953,-8.859C1.691,-8.797 1.469,-8.719 1.281,-8.625C1.102,-8.531 0.953,-8.422 0.828,-8.297C0.773,-8.211 0.727,-8.133 0.688,-8.063C0.645,-7.988 0.617,-7.914 0.609,-7.844C0.609,-7.77 0.617,-7.688 0.641,-7.594C0.68,-7.457 0.727,-7.348 0.781,-7.266C0.832,-7.172 0.922,-7.098 1.047,-7.047C1.117,-7.004 1.207,-6.969 1.313,-6.938C1.414,-6.914 1.539,-6.883 1.688,-6.844C1.738,-6.832 1.801,-6.816 1.875,-6.797C1.957,-6.773 2.047,-6.754 2.141,-6.734C2.242,-6.723 2.344,-6.711 2.438,-6.703C2.539,-6.703 2.648,-6.691 2.766,-6.672C3.328,-6.609 3.816,-6.523 4.234,-6.422C4.316,-6.379 4.395,-6.348 4.469,-6.328C4.551,-6.305 4.629,-6.281 4.703,-6.25C4.785,-6.219 4.863,-6.188 4.938,-6.156C5.008,-6.125 5.07,-6.086 5.125,-6.047C5.188,-6.004 5.25,-5.961 5.313,-5.922C5.625,-5.723 5.867,-5.488 6.047,-5.219C6.223,-4.945 6.352,-4.641 6.438,-4.297C6.563,-3.816 6.578,-3.375 6.484,-2.969C6.391,-2.539 6.211,-2.148 5.953,-1.797C5.703,-1.453 5.363,-1.16 4.938,-0.922C4.539,-0.691 4.086,-0.516 3.578,-0.391C2.91,-0.223 2.273,-0.156 1.672,-0.188C1.066,-0.238 0.539,-0.363 0.094,-0.563L-0.203,-0.703L-0.094,-0.969L0.25,-2.172L0.375,-2.531L0.734,-2.375Z" style="fill-rule:nonzero;"/>
            </g>
        </g>
    </g>
    <g transform="matrix(1.33333,0,0,1.33333,217.127,72.7427)">
        <g>
            <g>
                <path d="M-0.219,-0.438L2.047,-9.938L2.094,-10.156L2.328,-10.188L3.703,-10.406L3.938,-10.438L4.047,-10.234L8.984,-1.813L9.156,-1.516L8.875,-1.359L7.766,-0.719L7.5,-0.531L7.328,-0.844L6,-3.141L2.156,-2.563L1.563,0L1.484,0.328L1.156,0.25L0.031,-0.031L-0.313,-0.094L-0.219,-0.438ZM2.563,-4.375L5.063,-4.766L3.328,-7.781L2.563,-4.375Z" style="fill-rule:nonzero;"/>
            </g>
        </g>
    </g>
    <g transform="matrix(1.33333,0,0,1.33333,235.558,70.3504)">
        <g>
            <g>
                <path d="M6.797,-0.047L1.219,0.266L0.891,0.281L0.875,-0.047L0.359,-9.422L0.344,-9.766L0.672,-9.781L1.953,-9.859L2.281,-9.875L2.297,-9.531L2.734,-1.625L6.703,-1.844L7.031,-1.859L7.047,-1.531L7.109,-0.391L7.125,-0.063L6.797,-0.047Z" style="fill-rule:nonzero;"/>
            </g>
        </g>
    </g>
    <g transform="matrix(1.33333,0,0,1.33333,251.366,69.7682)">
        <g>
            <g>
                <path d="M6.781,0.547L1.188,0.359L0.859,0.359L0.875,0.031L1.172,-9.359L1.188,-9.703L1.516,-9.703L2.797,-9.656L3.125,-9.641L3.109,-9.297L2.859,-1.375L6.844,-1.25L7.172,-1.25L7.156,-0.922L7.125,0.219L7.109,0.547L6.781,0.547Z" style="fill-rule:nonzero;"/>
            </g>
        </g>
    </g>
    <g transform="matrix(1.33333,0,0,1.33333,267.129,70.516)">
        <g>
            <g>
                <path d="M-0.094,-0.469L4.688,-9L4.781,-9.203L5.016,-9.172L6.391,-9L6.625,-8.969L6.688,-8.734L9.141,0.703L9.219,1.031L8.891,1.094L7.672,1.422L7.344,1.516L7.281,1.172L6.641,-1.391L2.781,-1.891L1.5,0.422L1.344,0.719L1.047,0.563L0.031,-0.031L-0.281,-0.172L-0.094,-0.469ZM3.656,-3.516L6.172,-3.203L5.328,-6.578L3.656,-3.516Z" style="fill-rule:nonzero;"/>
            </g>
        </g>
    </g>
    <g transform="matrix(1.33333,0,0,1.33333,285.481,73.1764)">
        <g>
            <g>
                <path d="M3.344,-9.188C3.445,-9.176 3.551,-9.16 3.656,-9.141C3.758,-9.129 3.863,-9.113 3.969,-9.094C4.07,-9.082 4.172,-9.066 4.266,-9.047C4.367,-9.035 4.473,-9.02 4.578,-9C4.984,-8.938 5.445,-8.844 5.969,-8.719C6.789,-8.531 7.477,-8.227 8.031,-7.813C8.57,-7.414 8.992,-6.938 9.297,-6.375C9.586,-5.82 9.758,-5.219 9.813,-4.563C9.852,-3.914 9.797,-3.254 9.641,-2.578C9.484,-1.91 9.242,-1.297 8.922,-0.734C8.848,-0.629 8.773,-0.52 8.703,-0.406C8.629,-0.301 8.551,-0.203 8.469,-0.109C8.383,-0.016 8.297,0.07 8.203,0.156C8.117,0.25 8.031,0.336 7.938,0.422C7.844,0.504 7.738,0.582 7.625,0.656C7.102,1.031 6.492,1.281 5.797,1.406C5.117,1.508 4.348,1.457 3.484,1.25C3.398,1.227 3.316,1.207 3.234,1.188C3.16,1.176 3.082,1.16 3,1.141C2.926,1.117 2.852,1.098 2.781,1.078C2.707,1.055 2.633,1.035 2.563,1.016C2.5,1.004 2.43,0.988 2.359,0.969C2.297,0.957 2.234,0.941 2.172,0.922C1.805,0.805 1.438,0.688 1.063,0.563L0.797,0.469L0.859,0.172L2.984,-8.922L3.047,-9.203L3.344,-9.188ZM5.516,-7C5.391,-7.031 5.27,-7.055 5.156,-7.078C5.051,-7.098 4.945,-7.117 4.844,-7.141C4.75,-7.16 4.656,-7.176 4.563,-7.188L3.047,-0.703C3.078,-0.703 3.102,-0.695 3.125,-0.688C3.145,-0.688 3.164,-0.676 3.188,-0.656C3.219,-0.645 3.238,-0.641 3.25,-0.641C3.27,-0.641 3.297,-0.633 3.328,-0.625C3.504,-0.57 3.703,-0.52 3.922,-0.469C4.035,-0.445 4.145,-0.426 4.25,-0.406C4.352,-0.395 4.453,-0.383 4.547,-0.375C4.648,-0.363 4.75,-0.359 4.844,-0.359L5.109,-0.359C5.203,-0.359 5.285,-0.363 5.359,-0.375C5.785,-0.457 6.156,-0.602 6.469,-0.813C6.77,-1.039 7.023,-1.336 7.234,-1.703C7.453,-2.098 7.617,-2.547 7.734,-3.047C7.836,-3.473 7.875,-3.898 7.844,-4.328C7.813,-4.754 7.719,-5.145 7.563,-5.5C7.469,-5.676 7.359,-5.836 7.234,-5.984C7.109,-6.141 6.957,-6.285 6.781,-6.422C6.445,-6.691 6.023,-6.883 5.516,-7Z" style="fill-rule:nonzero;"/>
            </g>
        </g>
    </g>
    <g transform="matrix(1.33333,0,0,1.33333,303.721,77.8036)">
        <g>
            <g>
                <path d="M1.906,-1.609C2,-1.43 2.109,-1.27 2.234,-1.125C2.359,-0.977 2.492,-0.836 2.641,-0.703C2.93,-0.441 3.313,-0.234 3.781,-0.078C4.051,0.016 4.301,0.066 4.531,0.078C4.758,0.098 4.961,0.078 5.141,0.016C5.484,-0.078 5.707,-0.285 5.813,-0.609C5.82,-0.641 5.832,-0.664 5.844,-0.688C5.852,-0.719 5.859,-0.742 5.859,-0.766C5.867,-0.797 5.875,-0.828 5.875,-0.859C5.883,-0.891 5.891,-0.914 5.891,-0.938L5.891,-1.016C5.891,-1.129 5.848,-1.258 5.766,-1.406C5.691,-1.57 5.551,-1.754 5.344,-1.953C5.133,-2.172 4.859,-2.43 4.516,-2.734C4.098,-3.078 3.758,-3.391 3.5,-3.672C3.219,-3.984 3,-4.297 2.844,-4.609C2.801,-4.711 2.766,-4.816 2.734,-4.922C2.703,-5.023 2.672,-5.133 2.641,-5.25C2.617,-5.363 2.617,-5.473 2.641,-5.578C2.629,-5.898 2.688,-6.238 2.813,-6.594C2.926,-6.957 3.113,-7.27 3.375,-7.531C3.645,-7.801 3.969,-8.004 4.344,-8.141C4.707,-8.273 5.125,-8.336 5.594,-8.328C6.039,-8.328 6.52,-8.238 7.031,-8.063C7.582,-7.875 8.063,-7.648 8.469,-7.391C8.875,-7.141 9.25,-6.836 9.594,-6.484L9.813,-6.25L9.625,-6.016L8.828,-5.125L8.578,-4.844L8.328,-5.141C8.242,-5.223 8.16,-5.301 8.078,-5.375C7.992,-5.445 7.906,-5.52 7.813,-5.594C7.727,-5.676 7.625,-5.766 7.5,-5.859C7.188,-6.086 6.836,-6.27 6.453,-6.406C6.203,-6.488 5.973,-6.535 5.766,-6.547C5.555,-6.555 5.367,-6.547 5.203,-6.516C5.109,-6.484 5.02,-6.445 4.938,-6.406C4.863,-6.363 4.805,-6.313 4.766,-6.25C4.734,-6.188 4.703,-6.113 4.672,-6.031C4.629,-5.895 4.598,-5.773 4.578,-5.672C4.586,-5.566 4.629,-5.461 4.703,-5.359C4.734,-5.285 4.785,-5.207 4.859,-5.125C4.93,-5.039 5.02,-4.945 5.125,-4.844C5.176,-4.789 5.227,-4.734 5.281,-4.672C5.332,-4.617 5.391,-4.563 5.453,-4.5C5.523,-4.445 5.602,-4.383 5.688,-4.313C5.77,-4.25 5.852,-4.18 5.938,-4.109C6.383,-3.742 6.75,-3.406 7.031,-3.094C7.082,-3.02 7.133,-2.953 7.188,-2.891C7.25,-2.828 7.301,-2.758 7.344,-2.688C7.383,-2.625 7.426,-2.555 7.469,-2.484C7.508,-2.422 7.547,-2.359 7.578,-2.297C7.617,-2.234 7.656,-2.164 7.688,-2.094C7.832,-1.758 7.906,-1.426 7.906,-1.094C7.906,-0.77 7.848,-0.441 7.734,-0.109C7.578,0.348 7.348,0.727 7.047,1.031C6.734,1.332 6.379,1.563 5.984,1.719C5.586,1.863 5.145,1.926 4.656,1.906C4.188,1.875 3.707,1.773 3.219,1.609C2.563,1.391 1.992,1.098 1.516,0.734C1.023,0.379 0.645,-0.008 0.375,-0.438L0.203,-0.703L0.453,-0.875L1.391,-1.688L1.703,-1.938L1.906,-1.609Z" style="fill-rule:nonzero;"/>
            </g>
        </g>
    </g>
    <g transform="matrix(1.33333,0,0,1.33333,330.616,88.4649)">
        <g>
            <g>
                <path d="M5.578,-8.016C5.891,-7.891 6.254,-7.734 6.672,-7.547C7.098,-7.359 7.582,-7.117 8.125,-6.828C9.207,-6.242 9.93,-5.586 10.297,-4.859C10.691,-4.098 10.688,-3.336 10.281,-2.578C10.25,-2.523 10.219,-2.473 10.188,-2.422C10.164,-2.379 10.141,-2.332 10.109,-2.281C10.086,-2.238 10.055,-2.191 10.016,-2.141C9.984,-2.098 9.945,-2.055 9.906,-2.016C9.875,-1.984 9.844,-1.945 9.813,-1.906C9.781,-1.875 9.742,-1.844 9.703,-1.813C9.66,-1.781 9.617,-1.75 9.578,-1.719C9.547,-1.688 9.508,-1.656 9.469,-1.625C9.426,-1.594 9.379,-1.566 9.328,-1.547C9.273,-1.523 9.227,-1.504 9.188,-1.484C8.938,-1.359 8.645,-1.281 8.313,-1.25C8.539,-0.914 8.695,-0.578 8.781,-0.234C8.895,0.328 8.801,0.895 8.5,1.469C8.039,2.32 7.344,2.828 6.406,2.984C5.5,3.117 4.453,2.867 3.266,2.234C2.773,1.973 2.313,1.711 1.875,1.453C1.445,1.203 1.113,0.992 0.875,0.828L0.641,0.625L0.781,0.375L5.172,-7.875L5.297,-8.125L5.578,-8.016ZM4.141,0.766C4.266,0.828 4.391,0.883 4.516,0.938C4.648,1 4.773,1.047 4.891,1.078C5.004,1.117 5.113,1.148 5.219,1.172C5.332,1.191 5.438,1.203 5.531,1.203C5.633,1.211 5.727,1.211 5.813,1.203C6.02,1.18 6.195,1.125 6.344,1.031C6.488,0.938 6.613,0.797 6.719,0.609C6.914,0.223 6.914,-0.148 6.719,-0.516C6.52,-0.93 6.094,-1.313 5.438,-1.656L4.375,-2.234L3.109,0.125C3.422,0.344 3.766,0.555 4.141,0.766ZM6.141,-3.156C6.703,-2.863 7.207,-2.738 7.656,-2.781C8.051,-2.832 8.332,-3.016 8.5,-3.328C8.676,-3.672 8.672,-4.004 8.484,-4.328C8.273,-4.691 7.879,-5.023 7.297,-5.328C7.242,-5.359 7.188,-5.391 7.125,-5.422C7.063,-5.461 7,-5.492 6.938,-5.516C6.883,-5.535 6.832,-5.563 6.781,-5.594C6.727,-5.625 6.672,-5.656 6.609,-5.688C6.578,-5.695 6.547,-5.707 6.516,-5.719C6.484,-5.738 6.441,-5.754 6.391,-5.766C6.348,-5.785 6.313,-5.805 6.281,-5.828L5.141,-3.703L6.141,-3.156Z" style="fill-rule:nonzero;"/>
            </g>
        </g>
    </g>
    <g transform="matrix(1.33333,0,0,1.33333,346.254,97.1303)">
        <g>
            <g>
                <path d="M0.125,-0.469L8.203,-5.969L8.391,-6.094L8.594,-5.969L9.75,-5.203L9.938,-5.063L9.875,-4.859L7.859,4.703L7.797,5.047L7.469,4.953L6.234,4.688L5.891,4.641L6,4.297L6.563,1.719L3.328,-0.453L1.156,1.047L0.891,1.25L0.688,0.953L0.047,-0.016L-0.172,-0.281L0.125,-0.469ZM4.844,-1.516L6.938,-0.109L7.703,-3.516L4.844,-1.516Z" style="fill-rule:nonzero;"/>
            </g>
        </g>
    </g>
    <g transform="matrix(1.33333,0,0,1.33333,361.493,107.723)">
        <g>
            <g>
                <path d="M4.734,4.281L5.438,1.563C5.602,0.957 5.613,0.438 5.469,0C5.414,-0.125 5.348,-0.25 5.266,-0.375C5.191,-0.508 5.098,-0.641 4.984,-0.766C4.867,-0.898 4.738,-1.035 4.594,-1.172L2.172,1.781L1.969,2.031L0.469,0.813L0.672,0.563L6.625,-6.688L6.813,-6.906L7.078,-6.75C7.273,-6.602 7.461,-6.461 7.641,-6.328C7.828,-6.203 8.008,-6.078 8.188,-5.953C8.539,-5.703 8.91,-5.414 9.297,-5.094C9.766,-4.719 10.141,-4.328 10.422,-3.922C10.703,-3.516 10.883,-3.117 10.969,-2.734C11.063,-2.328 11.063,-1.93 10.969,-1.547C10.875,-1.172 10.691,-0.816 10.422,-0.484C9.953,0.086 9.395,0.41 8.75,0.484C8.344,0.516 7.898,0.469 7.422,0.344C7.441,0.426 7.457,0.504 7.469,0.578C7.477,0.648 7.484,0.738 7.484,0.844C7.492,0.945 7.492,1.055 7.484,1.172C7.473,1.297 7.461,1.422 7.453,1.547C7.422,1.816 7.363,2.113 7.281,2.438L6.672,4.781L6.594,5.094L6.266,5.016L4.984,4.688L4.641,4.609L4.734,4.281ZM8.188,-3.734C8.082,-3.828 7.977,-3.914 7.875,-4C7.77,-4.094 7.664,-4.172 7.563,-4.234C7.531,-4.254 7.5,-4.273 7.469,-4.297C7.438,-4.328 7.406,-4.352 7.375,-4.375C7.344,-4.406 7.316,-4.43 7.297,-4.453L5.703,-2.516L6.578,-1.781C7.023,-1.414 7.461,-1.219 7.891,-1.188C8.266,-1.156 8.586,-1.305 8.859,-1.641C8.961,-1.766 9.031,-1.906 9.063,-2.063C9.102,-2.219 9.098,-2.383 9.047,-2.563C9.004,-2.75 8.91,-2.941 8.766,-3.141C8.629,-3.336 8.438,-3.535 8.188,-3.734Z" style="fill-rule:nonzero;"/>
            </g>
        </g>
    </g>
    <g transform="matrix(1.33333,0,0,1.33333,150.623,417.258)">
        <g>
            <g>
                <path d="M5.75,-7.891C6.063,-7.766 6.426,-7.602 6.844,-7.406C7.258,-7.207 7.738,-6.957 8.281,-6.656C9.352,-6.051 10.063,-5.379 10.406,-4.641C10.781,-3.867 10.758,-3.102 10.344,-2.344C10.313,-2.289 10.281,-2.238 10.25,-2.188C10.219,-2.145 10.188,-2.102 10.156,-2.063C10.133,-2.02 10.102,-1.973 10.063,-1.922C10.031,-1.879 9.992,-1.844 9.953,-1.813C9.922,-1.781 9.891,-1.742 9.859,-1.703C9.828,-1.672 9.785,-1.641 9.734,-1.609C9.691,-1.578 9.648,-1.547 9.609,-1.516C9.578,-1.492 9.539,-1.469 9.5,-1.438C9.457,-1.406 9.41,-1.375 9.359,-1.344C9.305,-1.32 9.266,-1.301 9.234,-1.281C8.973,-1.164 8.676,-1.094 8.344,-1.063C8.563,-0.727 8.707,-0.383 8.781,-0.031C8.875,0.531 8.766,1.094 8.453,1.656C7.984,2.5 7.281,2.988 6.344,3.125C5.438,3.227 4.391,2.953 3.203,2.297C2.723,2.023 2.27,1.758 1.844,1.5C1.414,1.238 1.086,1.016 0.859,0.828L0.641,0.641L0.781,0.391L5.344,-7.766L5.484,-8L5.75,-7.891ZM4.125,0.828C4.258,0.898 4.391,0.969 4.516,1.031C4.641,1.094 4.758,1.145 4.875,1.188C4.988,1.227 5.098,1.258 5.203,1.281C5.316,1.301 5.422,1.316 5.516,1.328C5.609,1.336 5.703,1.336 5.797,1.328C6.004,1.305 6.18,1.25 6.328,1.156C6.473,1.07 6.598,0.93 6.703,0.734C6.91,0.367 6.926,0 6.75,-0.375C6.531,-0.789 6.098,-1.18 5.453,-1.547L4.406,-2.125L3.109,0.203C3.422,0.41 3.758,0.617 4.125,0.828ZM6.219,-3.031C6.77,-2.719 7.27,-2.582 7.719,-2.625C8.113,-2.664 8.395,-2.844 8.563,-3.156C8.75,-3.488 8.754,-3.816 8.578,-4.141C8.379,-4.516 7.992,-4.863 7.422,-5.188C7.367,-5.207 7.305,-5.234 7.234,-5.266C7.172,-5.305 7.113,-5.336 7.063,-5.359C7.008,-5.391 6.953,-5.422 6.891,-5.453C6.836,-5.484 6.785,-5.516 6.734,-5.547C6.691,-5.555 6.656,-5.566 6.625,-5.578C6.594,-5.598 6.555,-5.613 6.516,-5.625C6.484,-5.645 6.445,-5.664 6.406,-5.688L5.219,-3.578L6.219,-3.031Z" style="fill-rule:nonzero;"/>
            </g>
        </g>
    </g>
    <g transform="matrix(1.33333,0,0,1.33333,167.372,426.205)">
        <g>
            <g>
                <path d="M0.047,-0.484L7.016,-7.328L7.172,-7.484L7.391,-7.391L8.656,-6.844L8.875,-6.75L8.875,-6.531L8.578,3.234L8.578,3.578L8.234,3.547L6.984,3.516L6.625,3.516L6.672,3.172L6.766,0.516L3.203,-1.031L1.328,0.828L1.078,1.063L0.844,0.828L0.047,-0.016L-0.203,-0.25L0.047,-0.484ZM4.5,-2.359L6.828,-1.344L6.953,-4.828L4.5,-2.359Z" style="fill-rule:nonzero;"/>
            </g>
        </g>
    </g>
    <g transform="matrix(1.33333,0,0,1.33333,185.565,433.667)">
        <g>
            <g>
                <path d="M5.969,2.234L5.641,-0.547C5.566,-1.172 5.383,-1.656 5.094,-2C5,-2.102 4.891,-2.203 4.766,-2.297C4.648,-2.391 4.508,-2.473 4.344,-2.547C4.188,-2.617 4.02,-2.691 3.844,-2.766L2.672,0.859L2.578,1.172L2.266,1.078L1.047,0.688L0.734,0.578L0.828,0.266L3.688,-8.656L3.781,-8.938L4.094,-8.875C4.32,-8.82 4.547,-8.766 4.766,-8.703C4.992,-8.648 5.211,-8.598 5.422,-8.547C5.828,-8.453 6.273,-8.328 6.766,-8.172C7.336,-7.984 7.832,-7.754 8.25,-7.484C8.656,-7.211 8.961,-6.91 9.172,-6.578C9.422,-6.234 9.57,-5.867 9.625,-5.484C9.676,-5.098 9.641,-4.703 9.516,-4.297C9.285,-3.586 8.879,-3.082 8.297,-2.781C7.941,-2.582 7.52,-2.461 7.031,-2.422C7.07,-2.359 7.113,-2.289 7.156,-2.219C7.195,-2.145 7.234,-2.066 7.266,-1.984C7.305,-1.879 7.348,-1.77 7.391,-1.656C7.43,-1.551 7.469,-1.43 7.5,-1.297C7.57,-1.047 7.625,-0.754 7.656,-0.422L7.969,1.984L8.016,2.328L7.672,2.359L6.359,2.547L6.016,2.563L5.969,2.234ZM6.234,-6.5C6.098,-6.539 5.961,-6.582 5.828,-6.625C5.703,-6.664 5.582,-6.695 5.469,-6.719C5.438,-6.738 5.398,-6.75 5.359,-6.75C5.316,-6.758 5.273,-6.77 5.234,-6.781C5.203,-6.789 5.172,-6.801 5.141,-6.813L4.375,-4.438L5.469,-4.094C6.008,-3.914 6.488,-3.891 6.906,-4.016C7.25,-4.129 7.488,-4.391 7.625,-4.797C7.676,-4.953 7.691,-5.109 7.672,-5.266C7.648,-5.422 7.582,-5.57 7.469,-5.719C7.363,-5.875 7.207,-6.016 7,-6.141C6.789,-6.273 6.535,-6.395 6.234,-6.5Z" style="fill-rule:nonzero;"/>
            </g>
        </g>
    </g>
    <g transform="matrix(1.33333,0,0,1.33333,216.153,441.728)">
        <g>
            <g>
                <path d="M2.547,-9.438C2.648,-9.438 2.754,-9.43 2.859,-9.422C2.973,-9.422 3.078,-9.414 3.172,-9.406C3.273,-9.395 3.379,-9.383 3.484,-9.375C3.598,-9.375 3.703,-9.367 3.797,-9.359C4.203,-9.328 4.664,-9.273 5.188,-9.203C6.031,-9.078 6.742,-8.836 7.328,-8.484C7.91,-8.117 8.375,-7.672 8.719,-7.141C9.07,-6.617 9.289,-6.035 9.375,-5.391C9.488,-4.742 9.492,-4.078 9.391,-3.391C9.297,-2.711 9.102,-2.082 8.813,-1.5C8.75,-1.383 8.688,-1.27 8.625,-1.156C8.57,-1.051 8.508,-0.941 8.438,-0.828C8.363,-0.723 8.285,-0.625 8.203,-0.531C8.117,-0.438 8.031,-0.344 7.938,-0.25C7.852,-0.156 7.758,-0.07 7.656,0C7.164,0.414 6.582,0.719 5.906,0.906C5.227,1.07 4.453,1.094 3.578,0.969C3.492,0.945 3.41,0.93 3.328,0.922C3.242,0.91 3.16,0.898 3.078,0.891C3.004,0.879 2.93,0.863 2.859,0.844C2.785,0.832 2.711,0.82 2.641,0.813C2.566,0.801 2.492,0.789 2.422,0.781C2.359,0.77 2.297,0.754 2.234,0.734C1.867,0.66 1.492,0.578 1.109,0.484L0.828,0.391L0.859,0.094L2.203,-9.156L2.234,-9.438L2.547,-9.438ZM4.906,-7.438C4.781,-7.457 4.66,-7.473 4.547,-7.484C4.43,-7.492 4.32,-7.508 4.219,-7.531C4.125,-7.539 4.031,-7.547 3.938,-7.547L2.984,-0.953C3.016,-0.953 3.039,-0.945 3.063,-0.938C3.082,-0.938 3.102,-0.93 3.125,-0.922C3.145,-0.922 3.16,-0.914 3.172,-0.906L3.25,-0.906C3.445,-0.863 3.656,-0.828 3.875,-0.797C3.977,-0.773 4.082,-0.758 4.188,-0.75L4.797,-0.75C4.891,-0.758 4.977,-0.77 5.063,-0.781C5.156,-0.801 5.242,-0.82 5.328,-0.844C5.734,-0.945 6.082,-1.125 6.375,-1.375C6.664,-1.625 6.895,-1.941 7.063,-2.328C7.238,-2.723 7.363,-3.176 7.438,-3.688C7.5,-4.113 7.504,-4.547 7.453,-4.984C7.391,-5.41 7.258,-5.789 7.063,-6.125C6.957,-6.289 6.832,-6.441 6.688,-6.578C6.551,-6.723 6.395,-6.859 6.219,-6.984C5.863,-7.211 5.426,-7.363 4.906,-7.438Z" style="fill-rule:nonzero;"/>
            </g>
        </g>
    </g>
    <g transform="matrix(1.33333,0,0,1.33333,235.905,444.151)">
        <g>
            <g>
                <path d="M1.656,-9.656L7.297,-9.406L7.641,-9.391L7.625,-9.047L7.578,-7.953L7.563,-7.609L7.219,-7.625L3.188,-7.813L3.078,-5.641L6.5,-5.469L6.844,-5.453L6.828,-5.125L6.781,-4.047L6.766,-3.719L6.422,-3.734L3,-3.906L2.875,-1.313L6.906,-1.125L7.25,-1.109L7.234,-0.766L7.188,0.328L7.172,0.656L6.828,0.641L1.188,0.391L0.859,0.375L0.875,0.047L1.313,-9.328L1.328,-9.672L1.656,-9.656Z" style="fill-rule:nonzero;"/>
            </g>
        </g>
    </g>
    <g transform="matrix(1.33333,0,0,1.33333,266.389,443.955)">
        <g>
            <g>
                <path d="M1.766,-4.953C1.785,-4.766 1.805,-4.586 1.828,-4.422C1.859,-4.266 1.898,-4.113 1.953,-3.969C2.004,-3.82 2.063,-3.68 2.125,-3.547C2.313,-3.141 2.539,-2.801 2.813,-2.531C2.895,-2.438 2.984,-2.352 3.078,-2.281C3.18,-2.207 3.281,-2.141 3.375,-2.078C3.477,-2.023 3.586,-1.977 3.703,-1.938C4.047,-1.82 4.41,-1.785 4.797,-1.828C5.191,-1.867 5.531,-1.953 5.813,-2.078C6.094,-2.223 6.363,-2.395 6.625,-2.594L6.938,-2.828L7.125,-2.469L7.641,-1.469L7.781,-1.203L7.531,-1.031C7.195,-0.801 6.813,-0.594 6.375,-0.406C5.945,-0.227 5.438,-0.109 4.844,-0.047C4.188,0.023 3.566,-0.023 2.984,-0.203C2.41,-0.391 1.898,-0.68 1.453,-1.078C1.023,-1.473 0.664,-1.977 0.375,-2.594C0.082,-3.195 -0.109,-3.883 -0.203,-4.656C-0.285,-5.406 -0.254,-6.109 -0.109,-6.766C0.035,-7.43 0.273,-8.02 0.609,-8.531C0.973,-9.039 1.426,-9.457 1.969,-9.781C2.238,-9.938 2.523,-10.066 2.828,-10.172C3.141,-10.273 3.473,-10.348 3.828,-10.391C4.305,-10.441 4.742,-10.441 5.141,-10.391C5.523,-10.359 5.898,-10.273 6.266,-10.141L6.563,-10.047L6.5,-9.75L6.234,-8.641L6.141,-8.281L5.781,-8.391C5.508,-8.504 5.238,-8.582 4.969,-8.625C4.875,-8.645 4.781,-8.656 4.688,-8.656C4.594,-8.656 4.488,-8.648 4.375,-8.641C4.258,-8.641 4.141,-8.633 4.016,-8.625C3.828,-8.602 3.645,-8.563 3.469,-8.5C3.289,-8.445 3.129,-8.375 2.984,-8.281C2.836,-8.195 2.703,-8.094 2.578,-7.969C2.453,-7.844 2.336,-7.703 2.234,-7.547C2.141,-7.391 2.055,-7.219 1.984,-7.031C1.91,-6.852 1.848,-6.648 1.797,-6.422C1.711,-5.992 1.703,-5.504 1.766,-4.953Z" style="fill-rule:nonzero;"/>
            </g>
        </g>
    </g>
    <g transform="matrix(1.33333,0,0,1.33333,284.594,441.562)">
        <g>
            <g>
                <path d="M-0.688,-4.672C-0.832,-5.367 -0.867,-6.051 -0.797,-6.719C-0.711,-7.383 -0.523,-7.992 -0.234,-8.547C0.066,-9.078 0.473,-9.535 0.984,-9.922C1.254,-10.129 1.539,-10.297 1.844,-10.422C2.156,-10.555 2.488,-10.664 2.844,-10.75C3.219,-10.832 3.57,-10.875 3.906,-10.875C4.25,-10.883 4.578,-10.848 4.891,-10.766C5.223,-10.703 5.531,-10.602 5.813,-10.469C6.102,-10.344 6.375,-10.188 6.625,-10C7.113,-9.633 7.539,-9.164 7.906,-8.594C8.238,-8.02 8.477,-7.391 8.625,-6.703C8.781,-6.023 8.828,-5.359 8.766,-4.703C8.734,-4.484 8.691,-4.266 8.641,-4.047C8.586,-3.836 8.52,-3.633 8.438,-3.438C8.363,-3.238 8.281,-3.047 8.188,-2.859C8.051,-2.586 7.875,-2.332 7.656,-2.094C7.445,-1.852 7.211,-1.633 6.953,-1.438C6.453,-1.039 5.832,-0.758 5.094,-0.594C4.352,-0.438 3.664,-0.43 3.031,-0.578C2.883,-0.617 2.734,-0.664 2.578,-0.719C2.422,-0.77 2.273,-0.828 2.141,-0.891C2.004,-0.953 1.863,-1.023 1.719,-1.109C1.582,-1.191 1.457,-1.273 1.344,-1.359C0.844,-1.734 0.414,-2.211 0.063,-2.797C-0.281,-3.359 -0.531,-3.984 -0.688,-4.672ZM1.25,-5.109C1.301,-4.879 1.363,-4.66 1.438,-4.453C1.508,-4.242 1.602,-4.039 1.719,-3.844C1.832,-3.664 1.953,-3.492 2.078,-3.328C2.203,-3.16 2.344,-3.02 2.5,-2.906C2.539,-2.863 2.586,-2.82 2.641,-2.781C2.703,-2.75 2.754,-2.711 2.797,-2.672C2.848,-2.641 2.906,-2.602 2.969,-2.563C3.031,-2.531 3.094,-2.504 3.156,-2.484C3.219,-2.461 3.273,-2.441 3.328,-2.422C3.391,-2.398 3.453,-2.379 3.516,-2.359C3.867,-2.254 4.258,-2.25 4.688,-2.344C4.852,-2.375 5.004,-2.41 5.141,-2.453C5.273,-2.504 5.398,-2.563 5.516,-2.625C5.629,-2.695 5.738,-2.773 5.844,-2.859C6.145,-3.086 6.375,-3.379 6.531,-3.734C6.582,-3.828 6.629,-3.938 6.672,-4.063C6.711,-4.195 6.75,-4.328 6.781,-4.453C6.813,-4.586 6.832,-4.727 6.844,-4.875C6.863,-5.32 6.816,-5.797 6.703,-6.297C6.609,-6.723 6.457,-7.129 6.25,-7.516C6.031,-7.879 5.766,-8.191 5.453,-8.453C5.148,-8.711 4.813,-8.898 4.438,-9.016C4.07,-9.117 3.672,-9.125 3.234,-9.031C3.141,-9.008 3.035,-8.977 2.922,-8.938C2.816,-8.906 2.723,-8.867 2.641,-8.828C2.555,-8.785 2.469,-8.738 2.375,-8.688C2.289,-8.633 2.219,-8.578 2.156,-8.516C2.008,-8.398 1.875,-8.27 1.75,-8.125C1.633,-7.977 1.535,-7.82 1.453,-7.656C1.285,-7.301 1.176,-6.91 1.125,-6.484C1.102,-6.047 1.145,-5.586 1.25,-5.109Z" style="fill-rule:nonzero;"/>
            </g>
        </g>
    </g>
    <g transform="matrix(1.33333,0,0,1.33333,305.332,436.525)">
        <g>
            <g>
                <path d="M-1.922,-9.578C-1.566,-9.742 -1.188,-9.906 -0.781,-10.063C-0.375,-10.219 0.063,-10.375 0.531,-10.531C1.113,-10.719 1.66,-10.816 2.172,-10.828L2.422,-10.828C2.504,-10.828 2.586,-10.82 2.672,-10.813C2.766,-10.801 2.844,-10.789 2.906,-10.781C2.977,-10.77 3.051,-10.754 3.125,-10.734C3.207,-10.723 3.285,-10.707 3.359,-10.688C3.43,-10.664 3.5,-10.641 3.563,-10.609C4,-10.453 4.367,-10.219 4.672,-9.906C4.961,-9.563 5.18,-9.176 5.328,-8.75C5.504,-8.219 5.555,-7.711 5.484,-7.234C5.422,-6.766 5.254,-6.32 4.984,-5.906C4.848,-5.719 4.688,-5.531 4.5,-5.344C4.32,-5.164 4.117,-4.992 3.891,-4.828C3.461,-4.547 2.957,-4.313 2.375,-4.125C2.289,-4.094 2.207,-4.063 2.125,-4.031C2.051,-4.008 1.973,-3.988 1.891,-3.969C1.816,-3.945 1.742,-3.926 1.672,-3.906L2.672,-0.875L2.781,-0.563L2.469,-0.469L1.25,-0.063L0.938,0.031L0.828,-0.281L-2.109,-9.188L-2.188,-9.453L-1.922,-9.578ZM1.969,-5.813C2.664,-6.039 3.145,-6.359 3.406,-6.766C3.633,-7.129 3.672,-7.551 3.516,-8.031C3.367,-8.488 3.102,-8.797 2.719,-8.953C2.27,-9.117 1.711,-9.086 1.047,-8.859C0.973,-8.836 0.898,-8.813 0.828,-8.781C0.754,-8.758 0.68,-8.734 0.609,-8.703C0.547,-8.68 0.477,-8.66 0.406,-8.641C0.32,-8.609 0.238,-8.57 0.156,-8.531L1.125,-5.563L1.328,-5.594C1.391,-5.613 1.453,-5.633 1.516,-5.656C1.586,-5.688 1.66,-5.711 1.734,-5.734C1.816,-5.754 1.895,-5.781 1.969,-5.813Z" style="fill-rule:nonzero;"/>
            </g>
        </g>
    </g>
    <g transform="matrix(1.33333,0,0,1.33333,322.415,430.544)">
        <g>
            <g>
                <path d="M-0.328,-0.359L-0.625,-10.125L-0.656,-10.359L-0.438,-10.453L0.844,-11.016L1.047,-11.109L1.219,-10.938L8.188,-4.125L8.422,-3.875L8.188,-3.656L7.297,-2.75L7.078,-2.484L6.844,-2.75L4.969,-4.625L1.406,-3.047L1.516,-0.406L1.516,-0.078L1.188,-0.063L0.016,-0.047L-0.328,0L-0.328,-0.359ZM1.328,-4.891L3.641,-5.922L1.172,-8.391L1.328,-4.891Z" style="fill-rule:nonzero;"/>
            </g>
        </g>
    </g>
    <g transform="matrix(1.33333,0,0,1.33333,340.218,422.229)">
        <g>
            <g>
                <path d="M0.063,-2.469C0.258,-2.438 0.453,-2.414 0.641,-2.406C0.836,-2.406 1.035,-2.422 1.234,-2.453C1.641,-2.484 2.055,-2.617 2.484,-2.859C2.734,-3.004 2.938,-3.156 3.094,-3.313C3.258,-3.477 3.383,-3.648 3.469,-3.828C3.602,-4.141 3.586,-4.441 3.422,-4.734C3.41,-4.766 3.395,-4.789 3.375,-4.813C3.363,-4.844 3.348,-4.863 3.328,-4.875C3.316,-4.895 3.301,-4.914 3.281,-4.938C3.27,-4.969 3.254,-4.988 3.234,-5C3.223,-5.02 3.203,-5.039 3.172,-5.063C3.086,-5.133 2.969,-5.195 2.813,-5.25C2.633,-5.289 2.398,-5.301 2.109,-5.281C1.805,-5.281 1.426,-5.25 0.969,-5.188C0.438,-5.102 -0.023,-5.063 -0.422,-5.063C-0.828,-5.063 -1.195,-5.109 -1.531,-5.203C-1.633,-5.234 -1.734,-5.27 -1.828,-5.313C-1.93,-5.363 -2.031,-5.422 -2.125,-5.484C-2.219,-5.547 -2.305,-5.613 -2.391,-5.688C-2.641,-5.895 -2.852,-6.16 -3.031,-6.484C-3.219,-6.816 -3.32,-7.172 -3.344,-7.547C-3.363,-7.922 -3.301,-8.297 -3.156,-8.672C-3,-9.035 -2.77,-9.383 -2.469,-9.719C-2.164,-10.063 -1.781,-10.363 -1.313,-10.625C-0.801,-10.914 -0.313,-11.125 0.156,-11.25C0.613,-11.363 1.094,-11.438 1.594,-11.469L1.906,-11.484L1.953,-11.188L2.094,-10L2.109,-9.625L1.734,-9.625C1.629,-9.625 1.52,-9.617 1.406,-9.609C1.289,-9.598 1.172,-9.582 1.047,-9.563C0.922,-9.551 0.789,-9.531 0.656,-9.5C0.281,-9.414 -0.082,-9.273 -0.438,-9.078C-0.676,-8.941 -0.867,-8.801 -1.016,-8.656C-1.172,-8.508 -1.285,-8.363 -1.359,-8.219C-1.398,-8.125 -1.43,-8.035 -1.453,-7.953C-1.473,-7.879 -1.473,-7.805 -1.453,-7.734C-1.441,-7.66 -1.41,-7.582 -1.359,-7.5C-1.297,-7.375 -1.227,-7.273 -1.156,-7.203C-1.082,-7.141 -0.984,-7.098 -0.859,-7.078C-0.766,-7.055 -0.664,-7.047 -0.563,-7.047C-0.457,-7.047 -0.332,-7.051 -0.188,-7.063C-0.113,-7.051 -0.039,-7.047 0.031,-7.047C0.102,-7.055 0.188,-7.066 0.281,-7.078C0.383,-7.086 0.488,-7.102 0.594,-7.125C0.695,-7.145 0.801,-7.156 0.906,-7.156C1.469,-7.25 1.961,-7.297 2.391,-7.297C2.484,-7.297 2.57,-7.289 2.656,-7.281C2.738,-7.281 2.816,-7.27 2.891,-7.25C2.973,-7.238 3.051,-7.227 3.125,-7.219C3.207,-7.207 3.285,-7.191 3.359,-7.172C3.43,-7.16 3.504,-7.145 3.578,-7.125C3.922,-7.008 4.219,-6.844 4.469,-6.625C4.707,-6.406 4.914,-6.145 5.094,-5.844C5.332,-5.414 5.461,-4.984 5.484,-4.547C5.504,-4.117 5.438,-3.707 5.281,-3.313C5.113,-2.914 4.863,-2.547 4.531,-2.203C4.195,-1.859 3.805,-1.563 3.359,-1.313C2.754,-0.969 2.156,-0.742 1.563,-0.641C0.969,-0.516 0.422,-0.492 -0.078,-0.578L-0.391,-0.609L-0.344,-0.906L-0.313,-2.172L-0.313,-2.547L0.063,-2.469Z" style="fill-rule:nonzero;"/>
            </g>
        </g>
    </g>
</svg>
